<svg width="16" height="16" viewBox="0 0 16 16" fill="none" xmlns="http://www.w3.org/2000/svg">
<path d="M9.18671 6.30658C9.15344 6.30658 9.1205 6.31314 9.08976 6.32587C9.05902 6.3386 9.0311 6.35726 9.00757 6.38078C8.98405 6.40431 8.96539 6.43224 8.95266 6.46297C8.93993 6.49371 8.93337 6.52665 8.93337 6.55992V7.67325L8.00004 6.43325C7.97679 6.39552 7.94449 6.36418 7.90608 6.34206C7.86767 6.31994 7.82435 6.30775 7.78004 6.30658C7.74677 6.30658 7.71383 6.31314 7.68309 6.32587C7.65236 6.3386 7.62443 6.35726 7.60091 6.38078C7.57738 6.40431 7.55872 6.43224 7.54599 6.46297C7.53326 6.49371 7.52671 6.52665 7.52671 6.55992V8.45325C7.52671 8.48652 7.53326 8.51946 7.54599 8.5502C7.55872 8.58093 7.57738 8.60886 7.60091 8.63239C7.62443 8.65591 7.65236 8.67457 7.68309 8.6873C7.71383 8.70003 7.74677 8.70658 7.78004 8.70658C7.81331 8.70658 7.84625 8.70003 7.87699 8.6873C7.90772 8.67457 7.93565 8.65591 7.95917 8.63239C7.9827 8.60886 8.00136 8.58093 8.01409 8.5502C8.02682 8.51946 8.03337 8.48652 8.03337 8.45325V7.33325L8.96004 8.60658C8.98363 8.6421 9.01907 8.66809 9.06004 8.67992C9.09077 8.68681 9.12264 8.68681 9.15337 8.67992C9.18261 8.69055 9.21378 8.69486 9.2448 8.69256C9.27583 8.69026 9.30602 8.68141 9.33337 8.66658L9.40004 8.61992C9.44684 8.57165 9.47312 8.50714 9.47337 8.43992V6.55992C9.47369 6.52365 9.46621 6.48774 9.45145 6.45461C9.43669 6.42148 9.41498 6.3919 9.38781 6.36788C9.36063 6.34387 9.32861 6.32596 9.29392 6.31539C9.25922 6.30481 9.22266 6.30181 9.18671 6.30658ZM6.13337 8.17992H5.42671V6.55992C5.42671 6.49273 5.40002 6.42829 5.35251 6.38078C5.305 6.33328 5.24056 6.30658 5.17337 6.30658C5.10619 6.30658 5.04175 6.33328 4.99424 6.38078C4.94673 6.42829 4.92004 6.49273 4.92004 6.55992V8.45325C4.92004 8.52044 4.94673 8.58488 4.99424 8.63239C5.04175 8.67989 5.10619 8.70658 5.17337 8.70658H6.13337C6.20119 8.70661 6.26633 8.68013 6.3149 8.6328C6.36348 8.58548 6.39163 8.52105 6.39337 8.45325C6.39518 8.418 6.3898 8.38275 6.37754 8.34965C6.36529 8.31655 6.34643 8.2863 6.3221 8.26072C6.29777 8.23515 6.2685 8.2148 6.23605 8.2009C6.2036 8.18701 6.16867 8.17987 6.13337 8.17992ZM6.87337 6.30658C6.80556 6.30656 6.74042 6.33304 6.69184 6.38036C6.64327 6.42769 6.61511 6.49212 6.61337 6.55992V8.45325C6.61511 8.52105 6.64327 8.58548 6.69184 8.6328C6.74042 8.68013 6.80556 8.70661 6.87337 8.70658C6.94056 8.70658 7.005 8.67989 7.05251 8.63239C7.10002 8.58488 7.12671 8.52044 7.12671 8.45325V6.55992C7.12671 6.49273 7.10002 6.42829 7.05251 6.38078C7.005 6.33328 6.94056 6.30658 6.87337 6.30658ZM11.94 1.33325H4.06004C3.33742 1.33501 2.64491 1.62285 2.13394 2.13382C1.62297 2.64479 1.33513 3.3373 1.33337 4.05992V11.9399C1.33513 12.6625 1.62297 13.3551 2.13394 13.866C2.64491 14.377 3.33742 14.6648 4.06004 14.6666H11.94C12.6627 14.6648 13.3552 14.377 13.8661 13.866C14.3771 13.3551 14.6649 12.6625 14.6667 11.9399V4.05992C14.6649 3.3373 14.3771 2.64479 13.8661 2.13382C13.3552 1.62285 12.6627 1.33501 11.94 1.33325ZM12.1467 9.51992C12.1205 9.55965 12.0915 9.59752 12.06 9.63325C11.9011 9.82889 11.7223 10.0076 11.5267 10.1666C10.1934 11.4133 7.95337 12.9066 7.65337 12.6733C7.35337 12.4399 8.08004 11.4999 7.30004 11.3399C7.2447 11.3469 7.18871 11.3469 7.13337 11.3399C4.84004 11.0199 3.13337 9.41325 3.13337 7.48658C3.13337 5.31992 5.32671 3.56659 8.02671 3.56659C10.7267 3.56659 12.92 5.31992 12.92 7.48658C12.8969 8.23177 12.6246 8.9477 12.1467 9.51992ZM11.0067 6.31325H10C9.93285 6.31325 9.86842 6.33994 9.82091 6.38745C9.7734 6.43496 9.74671 6.4994 9.74671 6.56659V8.45992C9.74671 8.49319 9.75326 8.52613 9.76599 8.55686C9.77872 8.5876 9.79738 8.61553 9.82091 8.63905C9.84443 8.66258 9.87236 8.68124 9.90309 8.69397C9.93383 8.7067 9.96677 8.71325 10 8.71325H10.9867C11.02 8.71325 11.0529 8.7067 11.0837 8.69397C11.1144 8.68124 11.1423 8.66258 11.1658 8.63905C11.1894 8.61553 11.208 8.5876 11.2208 8.55686C11.2335 8.52613 11.24 8.49319 11.24 8.45992C11.24 8.39273 11.2134 8.32829 11.1658 8.28078C11.1183 8.23327 11.0539 8.20658 10.9867 8.20658H10.3V7.80658H11.0067C11.0745 7.80485 11.1389 7.77669 11.1863 7.72812C11.2336 7.67954 11.2601 7.6144 11.26 7.54658C11.26 7.4794 11.2333 7.41496 11.1858 7.36745C11.1383 7.31994 11.0739 7.29325 11.0067 7.29325H10.3V6.88658H11.0067C11.0739 6.88658 11.1383 6.85989 11.1858 6.81239C11.2333 6.76488 11.26 6.70044 11.26 6.63325C11.2705 6.59493 11.2718 6.55469 11.2639 6.51576C11.2559 6.47684 11.239 6.44033 11.2143 6.40918C11.1896 6.37803 11.158 6.35312 11.1219 6.33646C11.0859 6.31979 11.0464 6.31184 11.0067 6.31325Z" fill="#285F43"/>
</svg>
