<svg width="16" height="16" viewBox="0 0 16 16" fill="none" xmlns="http://www.w3.org/2000/svg">
<path d="M12.9599 8.66674C12.8133 8.66674 12.6599 8.62007 12.5133 8.58674C12.2163 8.52129 11.9244 8.4344 11.6399 8.32674C11.3307 8.21423 10.9907 8.22007 10.6855 8.34315C10.3803 8.46622 10.1313 8.69783 9.98661 8.99341L9.83995 9.29341C9.19061 8.93219 8.59393 8.48356 8.06661 7.96007C7.54312 7.43275 7.09449 6.83607 6.73328 6.18674L7.01328 6.00007C7.30886 5.85535 7.54047 5.60643 7.66354 5.3012C7.78662 4.99598 7.79246 4.65602 7.67995 4.34674C7.57409 4.06169 7.48724 3.76994 7.41995 3.47341C7.38661 3.32674 7.35995 3.17341 7.33995 3.02007C7.25899 2.55049 7.01303 2.12524 6.64636 1.8209C6.27969 1.51657 5.81641 1.35315 5.33995 1.36007H3.33995C3.05263 1.35738 2.76811 1.41662 2.50575 1.53376C2.24339 1.65091 2.00935 1.82321 1.81957 2.03893C1.62978 2.25465 1.4887 2.50874 1.40594 2.78388C1.32317 3.05903 1.30066 3.34878 1.33995 3.63341C1.6951 6.42633 2.97063 9.02133 4.96505 11.0085C6.95946 12.9957 9.55908 14.2617 12.3533 14.6067H12.6066C13.0982 14.6075 13.5729 14.4271 13.9399 14.1001C14.1509 13.9114 14.3193 13.6802 14.4343 13.4216C14.5492 13.163 14.6079 12.883 14.6066 12.6001V10.6001C14.5984 10.137 14.4298 9.69111 14.1295 9.33852C13.8292 8.98593 13.4158 8.74849 12.9599 8.66674V8.66674ZM13.2933 12.6667C13.2932 12.7614 13.2729 12.8549 13.2338 12.9412C13.1947 13.0274 13.1377 13.1043 13.0666 13.1667C12.9921 13.2311 12.905 13.2791 12.8109 13.3078C12.7167 13.3365 12.6176 13.3452 12.5199 13.3334C10.0232 13.0133 7.7041 11.8711 5.92842 10.0869C4.15274 8.3028 3.02155 5.9783 2.71328 3.48007C2.70267 3.38242 2.71197 3.28363 2.74061 3.18967C2.76926 3.09571 2.81666 3.00853 2.87995 2.93341C2.94242 2.8623 3.01932 2.8053 3.10553 2.76622C3.19174 2.72714 3.28529 2.70686 3.37995 2.70674H5.37994C5.53498 2.70329 5.68636 2.75399 5.80804 2.85012C5.92972 2.94625 6.01409 3.08179 6.04661 3.23341C6.07328 3.41563 6.10661 3.59563 6.14661 3.77341C6.22362 4.12484 6.32612 4.47019 6.45328 4.80674L5.51994 5.24007C5.44014 5.27669 5.36836 5.32871 5.30872 5.39314C5.24907 5.45757 5.20275 5.53315 5.17239 5.61554C5.14204 5.69792 5.12826 5.7855 5.13184 5.87322C5.13543 5.96095 5.15631 6.0471 5.19328 6.12674C6.15275 8.18191 7.80478 9.83394 9.85995 10.7934C10.0223 10.8601 10.2043 10.8601 10.3666 10.7934C10.4498 10.7637 10.5262 10.7177 10.5914 10.6582C10.6566 10.5987 10.7094 10.5268 10.7466 10.4467L11.1599 9.51341C11.5046 9.63666 11.8563 9.73907 12.2133 9.82007C12.3911 9.86007 12.5711 9.89341 12.7533 9.92007C12.9049 9.9526 13.0404 10.037 13.1366 10.1586C13.2327 10.2803 13.2834 10.4317 13.2799 10.5867L13.2933 12.6667ZM14.5733 1.78674C14.5056 1.62384 14.3762 1.49439 14.2133 1.42674C14.1331 1.39258 14.0471 1.37446 13.9599 1.37341H11.2933C11.1165 1.37341 10.9469 1.44365 10.8219 1.56867C10.6969 1.69369 10.6266 1.86326 10.6266 2.04007C10.6266 2.21689 10.6969 2.38646 10.8219 2.51148C10.9469 2.6365 11.1165 2.70674 11.2933 2.70674H12.3466L10.1533 4.90674C10.0291 5.03165 9.95942 5.20062 9.95942 5.37674C9.95942 5.55286 10.0291 5.72183 10.1533 5.84674C10.2782 5.97091 10.4472 6.0406 10.6233 6.0406C10.7994 6.0406 10.9684 5.97091 11.0933 5.84674L13.2933 3.65341V4.70674C13.2933 4.88355 13.3635 5.05312 13.4885 5.17815C13.6136 5.30317 13.7831 5.37341 13.9599 5.37341C14.1368 5.37341 14.3063 5.30317 14.4313 5.17815C14.5564 5.05312 14.6266 4.88355 14.6266 4.70674V2.04007C14.6256 1.95296 14.6074 1.86689 14.5733 1.78674V1.78674Z" fill="#285F43"/>
</svg>
